# xmcd
#
# Track frame offsets: 
#        150
#        16281
#        28964
#        60107
#        85519
#        98330
#        109282
#        136127
#        156121
#        171051
#        190968
#        209563
#
# Disc length: 3070 seconds
#
# Revision: 0
# Processed by: cddbd v1.5.2PL0 Copyright (c) Steve Scherf et al.
# Submitted via: ExactAudioCopy v1.3
#
DISCID=900bfc0c
DTITLE=Bob Corritore and Friends - Don't Let The Devil Ride
DYEAR=2018
DGENRE=Blues
TTITLE0=Went Home This Morning
TTITLE1=Tell Me Mama
TTITLE2=The Glide
TTITLE3=Laundromat Blues
TTITLE4=Fork In The Road
TTITLE5=Lovey Dovey Lovey One
TTITLE6=Don't Let The Devil Ride
TTITLE7=Willie Mae
TTITLE8=Steal Your Joy
TTITLE9=I Was A Fool
TTITLE10=Blues Why Do You Worry Me
TTITLE11=Thundering And Raining
EXTD=
EXTT0=
EXTT1=
EXTT2=
EXTT3=
EXTT4=
EXTT5=
EXTT6=
EXTT7=
EXTT8=
EXTT9=
EXTT10=
EXTT11=
PLAYORDER=
